<svg width="194" height="160" viewBox="0 0 194 160" fill="none" xmlns="http://www.w3.org/2000/svg">
<path d="M24.9087 67.1033L92.9369 24.168L160.965 67.1033V129.747H24.9087V67.1033Z" fill="#E6E7E8"/>
<path fill-rule="evenodd" clip-rule="evenodd" d="M24.5939 129.747C24.5939 129.92 24.7349 130.061 24.9089 130.061H160.965C161.137 130.076 161.289 129.95 161.306 129.778V67.1345C161.305 67.026 161.248 66.9255 161.154 66.8702L93.101 23.9286C92.9984 23.8663 92.8696 23.8663 92.767 23.9286L24.7388 66.8387C24.6468 66.8947 24.5916 66.9954 24.5939 67.1031V129.747ZM160.682 129.432H25.2051V67.2793L92.9372 24.558L160.682 67.2793V129.432Z" fill="#231F20"/>
<path d="M109.509 50.2396C111.771 46.5069 112.345 41.9685 112.137 37.6127C111.986 32.8471 110.728 28.1818 108.463 23.9849C107.543 22.1826 106.193 20.6346 104.531 19.478C102.49 18.2191 101.097 19.0689 99.0995 18.729C97.4108 18.4394 95.6464 17.2372 93.775 16.9287C89.4577 16.1914 85.0212 17.1183 81.3615 19.5221C74.9594 23.8465 72.0042 32.1112 65.3878 36.1272C58.9039 40.0424 50.6051 38.8653 43.3335 41.0306C40.2641 41.9496 37.4043 43.4592 34.915 45.4746C33.1953 46.7898 31.7881 48.4685 30.794 50.3907C29.0864 53.9534 29.5338 58.1959 30.794 61.9538C32.0543 65.8187 34.1841 69.5073 37.4859 71.9055C40.2522 73.9009 43.6486 74.8199 47.0071 75.4242C51.5755 76.2488 56.3078 76.5572 60.8699 75.569C64.2369 74.8902 67.375 73.365 69.9878 71.1376C71.1094 70.1368 71.7269 68.7708 72.7729 67.7763C74.2159 66.4104 76.4654 65.5732 78.1542 64.5283C80.7944 62.8854 83.4409 61.1355 86.4529 60.355C94.1026 58.3659 104.897 57.8246 109.509 50.2396Z" fill="white"/>
<path fill-rule="evenodd" clip-rule="evenodd" d="M46.9382 75.7327C49.523 76.2212 52.1464 76.4782 54.777 76.5006C56.8426 76.5243 58.9047 76.3238 60.927 75.9026C64.3628 75.2111 67.5619 73.6457 70.215 71.3579C70.7899 70.8128 71.3014 70.2047 71.7399 69.5451C72.1107 68.9888 72.5326 68.4683 73.0002 67.9903C74.0333 67.1197 75.1801 66.3934 76.4091 65.8313C77.0708 65.4914 77.7009 65.1452 78.331 64.7738L78.9611 64.3647L79.0128 64.3326C81.3847 62.8571 83.8264 61.3382 86.5226 60.6446C87.9681 60.2671 89.5106 59.9524 91.1447 59.619L91.3935 59.5682L91.3941 59.5681C98.2371 58.1707 105.975 56.5907 109.755 50.4096C111.797 47.0672 112.673 42.7869 112.427 37.6253C112.282 32.8121 111.011 28.0997 108.716 23.8654C107.777 22.0192 106.391 20.4372 104.683 19.264C103.606 18.5998 102.331 18.3347 101.078 18.515C100.436 18.575 99.7892 18.5602 99.1503 18.4709C98.3055 18.2809 97.4836 18.0002 96.6991 17.6338C95.7773 17.1851 94.8038 16.8511 93.8006 16.6392C89.4138 15.9014 84.9102 16.8529 81.1981 19.3018C78.0727 21.4294 75.7286 24.5074 73.4664 27.4848L73.444 27.5142C71.0629 30.646 68.6039 33.8801 65.237 35.9132C61.3681 38.2485 56.9257 38.7395 52.2249 39.2556C49.1966 39.5024 46.196 40.0164 43.2583 40.7915C40.1541 41.7201 37.2621 43.247 34.7453 45.2858C32.9855 46.6282 31.5511 48.3493 30.5487 50.3215C28.6142 54.3122 29.4712 58.9513 30.5046 62.0986C31.9538 66.5048 34.2916 70.0109 37.2973 72.1699C40.303 74.329 44.027 75.2102 46.9382 75.7327ZM81.5257 19.8117C84.3017 17.9644 87.5665 16.9869 90.902 17.0043C91.8634 17.0117 92.8225 17.1001 93.7691 17.2687C94.7185 17.4667 95.6408 17.7773 96.5164 18.194C97.3376 18.5815 98.2001 18.875 99.0873 19.0689C99.7698 19.165 100.461 19.184 101.148 19.1256C102.278 18.9372 103.439 19.1606 104.418 19.755C106.041 20.8836 107.358 22.3978 108.249 24.1612C110.501 28.316 111.747 32.9404 111.885 37.6631C112.125 42.7113 111.255 46.9035 109.302 50.1263C105.672 56.0936 98.0476 57.6484 91.3116 59.0143C89.5661 59.3668 87.953 59.7004 86.4155 60.0969C83.6264 60.8044 81.1428 62.3527 78.7414 63.8496L78.7028 63.8737L78.0348 64.2891C77.4488 64.6479 76.8187 64.9752 76.1445 65.3214C74.8664 65.9072 73.6748 66.6654 72.6032 67.5749C72.1043 68.0762 71.6549 68.6243 71.261 69.2115C70.8456 69.8362 70.3616 70.4126 69.818 70.9299C67.2397 73.1495 64.1318 74.6671 60.7946 75.3361C56.8564 76.1922 52.3699 76.1418 47.0642 75.1913C44.2161 74.6752 40.5487 73.8002 37.6565 71.7167C34.7642 69.6332 32.4894 66.2467 31.078 61.9098C30.0635 58.8569 29.2506 54.3941 31.078 50.5796C32.0505 48.6934 33.4326 47.0482 35.1234 45.7642C37.5818 43.7678 40.4074 42.271 43.441 41.358C46.3433 40.5922 49.3083 40.0867 52.3006 39.8473L52.3438 39.8425C56.8737 39.3404 61.5697 38.82 65.5332 36.4231C68.9975 34.3378 71.4958 31.0494 73.9105 27.8708L73.9264 27.8498L73.9591 27.8069C76.1859 24.8807 78.4845 21.86 81.5257 19.8117Z" fill="#231F20"/>
<path d="M135.219 44.0709L131.904 56.5341L139.888 57.9567L144.437 41.3076C144.437 41.3076 137.342 35.8816 136.246 35.8439C135.149 35.8061 135.219 44.0709 135.219 44.0709Z" fill="white"/>
<path fill-rule="evenodd" clip-rule="evenodd" d="M139.831 58.2717H139.888C140.02 58.2699 140.137 58.1838 140.177 58.0577L144.733 41.4085C144.765 41.2847 144.721 41.1536 144.62 41.0749C143.416 40.1622 137.38 35.586 136.252 35.5483C136.095 35.5421 135.943 35.6041 135.836 35.7182C134.903 36.6183 134.903 42.7367 134.903 44.0711L131.614 56.4777C131.589 56.5623 131.602 56.6534 131.649 56.728C131.696 56.8026 131.773 56.8535 131.86 56.868L139.831 58.2717ZM139.673 57.5982L132.326 56.3015L135.552 44.1718C135.556 44.1447 135.556 44.1172 135.552 44.09C135.527 40.565 135.804 36.4925 136.252 36.1588C136.857 36.1777 140.675 38.834 144.084 41.4274L139.673 57.5982Z" fill="#231F20"/>
<path d="M126.592 35.9195C126.592 35.9195 127.72 38.4373 129.346 38.8465C130.971 39.2556 134.506 37.512 134.916 37.7386C135.326 37.9652 144.651 44.9396 145.559 45.1473C146.466 45.3551 148.136 43.1583 148.848 40.546C148.848 40.546 139.774 34.3647 139.182 33.7101C138.59 33.0555 137.884 29.1402 137.002 27.7051L126.592 35.9195Z" fill="white"/>
<path fill-rule="evenodd" clip-rule="evenodd" d="M145.458 45.4812C145.523 45.4873 145.588 45.4873 145.653 45.4812C146.882 45.4812 148.489 42.976 149.138 40.6847C149.176 40.556 149.125 40.4176 149.012 40.3448C145.376 37.8648 139.818 34.0125 139.402 33.553C139.014 32.7751 138.722 31.9528 138.533 31.1044C138.242 29.8933 137.819 28.7176 137.273 27.5983C137.223 27.5238 137.146 27.4717 137.058 27.4535C136.969 27.4389 136.878 27.4617 136.806 27.5165L126.416 35.6994C126.302 35.7867 126.265 35.9418 126.327 36.0708C126.328 36.0726 126.329 36.075 126.331 36.078C126.416 36.2603 127.566 38.7222 129.289 39.1803C130.379 39.4683 132.168 38.8785 133.483 38.4448L133.504 38.4376C133.654 38.3852 133.816 38.3216 133.972 38.2602C134.341 38.115 134.681 37.9816 134.765 38.0347C134.884 38.1103 135.855 38.809 136.97 39.6272C141.917 43.234 144.891 45.3427 145.458 45.4812ZM135.067 37.4619C134.987 37.4212 134.898 37.4017 134.809 37.4053C134.284 37.4681 133.769 37.5993 133.278 37.7955L133.264 37.8001C132.098 38.1841 130.338 38.7639 129.421 38.5257C128.243 38.2299 127.291 36.5996 126.983 36.0079L136.882 28.1837C137.297 29.171 137.641 30.1871 137.909 31.224C138.331 32.6592 138.602 33.5656 138.924 33.9181C139.491 34.5538 146.926 39.6398 148.457 40.6784C147.695 43.2655 146.195 45.0028 145.603 44.8454C145.096 44.7107 141.246 41.9209 138.568 39.98C138.12 39.6547 137.704 39.3533 137.342 39.0922C137.17 38.9673 137.009 38.8504 136.859 38.7412C135.715 37.909 135.184 37.5231 135.067 37.4619Z" fill="#231F20"/>
<path d="M136.51 30.0529C136.436 30.7183 136.561 31.3909 136.869 31.9853C137.38 32.898 139.642 34.1129 139.642 34.1129L141.217 30.9656L138.13 28.7373L136.51 30.0529Z" fill="#231F20"/>
<path fill-rule="evenodd" clip-rule="evenodd" d="M139.497 34.3905C139.541 34.4156 139.591 34.4286 139.642 34.4283C139.675 34.4263 139.707 34.4177 139.736 34.4031C139.818 34.3784 139.886 34.3216 139.925 34.2457L141.501 31.0984C141.566 30.9611 141.523 30.7969 141.4 30.7082L138.319 28.4799C138.204 28.3895 138.042 28.3895 137.928 28.4799L136.308 29.8144C136.249 29.8634 136.211 29.9332 136.201 30.0095C136.118 30.7424 136.256 31.4833 136.598 32.137C137.134 33.1001 139.251 34.2646 139.497 34.3905ZM137.146 31.8349C136.889 31.3385 136.774 30.7811 136.813 30.2235L138.142 29.1219L140.814 31.0544L139.509 33.6855C138.779 33.2638 137.474 32.4644 137.146 31.8349Z" fill="#231F20"/>
<path d="M146.39 38.8781C146.39 38.8781 147.216 36.2785 145.76 36.0959C145.733 35.6306 145.465 35.213 145.053 34.9944C144.641 34.7757 144.145 34.7876 143.744 35.0259C143.744 35.0259 143.278 33.0934 141.753 33.4837C140.228 33.874 139.018 37.5185 139.232 38.4375C139.446 39.3565 140.631 38.7963 141.23 37.934C141.23 37.934 140.455 39.3691 140.971 39.7468C141.727 40.3007 142.521 39.3188 143.164 38.6012C143.164 38.6012 142.213 40.2818 143.612 40.4329C144.689 40.5525 145.691 38.3809 145.691 38.3809L146.39 38.8781Z" fill="white"/>
<path fill-rule="evenodd" clip-rule="evenodd" d="M143.549 40.7539H143.668C144.632 40.7539 145.439 39.4824 145.741 38.8403L146.17 39.1362C146.253 39.1924 146.358 39.2064 146.453 39.1739C146.548 39.1439 146.622 39.0682 146.649 38.9725C146.724 38.79 147.21 37.1974 146.649 36.3225C146.497 36.0815 146.261 35.9045 145.987 35.8252C145.874 35.3565 145.585 34.9489 145.181 34.6859C144.789 34.4878 144.333 34.4605 143.92 34.6104C143.737 34.0992 143.398 33.6587 142.95 33.3515C142.56 33.117 142.088 33.0576 141.652 33.1878C139.913 33.6347 138.659 37.4492 138.892 38.513C138.941 38.8627 139.207 39.1429 139.554 39.2117C139.872 39.2559 140.195 39.1868 140.467 39.0166C140.365 39.3731 140.475 39.7567 140.751 40.0048C141.375 40.4643 141.98 40.1748 142.503 39.7153C142.506 40.2899 142.973 40.7539 143.549 40.7539ZM143.322 38.3494C143.268 38.3072 143.201 38.285 143.133 38.2864C143.044 38.2866 142.96 38.323 142.9 38.3871L142.767 38.5382C142.087 39.2935 141.564 39.8097 141.123 39.4887C140.978 39.3817 141.154 38.7019 141.475 38.0724C141.55 37.9254 141.501 37.7458 141.362 37.657C141.22 37.5704 141.035 37.609 140.94 37.7451C140.67 38.2023 140.206 38.5109 139.68 38.5823C139.635 38.576 139.554 38.5571 139.509 38.3619C139.339 37.5625 140.467 34.1257 141.809 33.7858C142.081 33.7007 142.375 33.7327 142.622 33.8739C143.017 34.18 143.297 34.6103 143.416 35.0951C143.441 35.1854 143.503 35.261 143.586 35.3028C143.67 35.3408 143.767 35.3408 143.851 35.3028C144.168 35.1194 144.551 35.0915 144.891 35.2272C145.183 35.4441 145.378 35.7676 145.433 36.1274C145.453 36.2674 145.563 36.3774 145.704 36.398C145.88 36.4107 146.04 36.5035 146.138 36.6498C146.345 37.1966 146.365 37.7964 146.195 38.3556L145.842 38.1102C145.766 38.0551 145.668 38.0388 145.578 38.0661C145.489 38.0913 145.416 38.1532 145.376 38.2361C145.08 38.8655 144.248 40.1937 143.618 40.1244C143.271 40.0867 143.183 39.9482 143.183 39.9041C143.032 39.6083 143.271 39.004 143.41 38.7585C143.486 38.6191 143.448 38.4452 143.322 38.3494Z" fill="#231F20"/>
<path d="M139.654 31.0789C139.654 31.0789 138.791 29.5808 137.884 30.8963C136.976 32.2119 135.886 34.6731 137.399 34.9374C138.911 35.2018 140.045 32.3818 139.654 31.0789Z" fill="white"/>
<path fill-rule="evenodd" clip-rule="evenodd" d="M137.348 35.2588C137.43 35.265 137.512 35.265 137.594 35.2588C138.136 35.2334 138.641 34.9766 138.98 34.5538C139.811 33.568 140.167 32.2685 139.957 30.9974L139.925 30.9281C139.925 30.9268 139.924 30.9252 139.923 30.9235C139.86 30.8211 139.403 30.0778 138.722 30.0469C138.262 30.0644 137.845 30.3227 137.625 30.7267C136.976 31.6583 136 33.5278 136.441 34.579C136.6 34.9512 136.946 35.2104 137.348 35.2588ZM138.142 31.0603C138.268 30.8778 138.47 30.6574 138.678 30.6574H138.69C138.974 30.67 139.257 31.0288 139.358 31.1925C139.494 32.2438 139.186 33.3043 138.508 34.1195C138.263 34.455 137.864 34.6425 137.449 34.6167C137.261 34.6026 137.097 34.4865 137.02 34.3146C136.756 33.6788 137.38 32.1619 138.142 31.0603Z" fill="#231F20"/>
<path d="M135.212 44.915C135.212 44.915 134.217 40.1626 134.122 39.3128C133.964 37.8713 134.305 35.6179 135.571 35.2654C136.838 34.9129 139.736 34.5793 139.258 35.8508C138.823 37.009 136.283 37.2293 136.283 37.2293C136.283 37.2293 138.035 38.9918 137.77 40.7479" fill="white"/>
<path d="M135.212 45.2294C135.064 45.23 134.936 45.1279 134.903 44.9839C134.866 44.7887 133.908 40.2 133.813 39.3188C133.65 37.8458 133.965 35.3595 135.489 34.9126C136.283 34.6922 138.709 34.239 139.421 35.0133C139.641 35.2577 139.693 35.6096 139.554 35.9071C139.195 36.8765 137.745 37.2604 136.907 37.4115C137.437 38.0787 138.287 39.3943 138.079 40.7413C138.062 40.8538 137.987 40.9487 137.881 40.9903C137.775 41.0319 137.655 41.0139 137.566 40.9431C137.477 40.8723 137.432 40.7594 137.449 40.6469C137.689 39.067 136.069 37.4115 136.057 37.3989C135.971 37.3108 135.941 37.1819 135.981 37.0653C136.025 36.9514 136.13 36.8729 136.252 36.8639C136.882 36.8072 138.659 36.4862 138.955 35.6868C139.024 35.5168 138.955 35.4665 138.955 35.4413C138.621 35.0699 136.876 35.1832 135.653 35.5168C134.626 35.8001 134.286 37.8521 134.437 39.2243C134.532 40.0489 135.515 44.7573 135.521 44.8013C135.54 44.8833 135.524 44.9693 135.477 45.0394C135.431 45.1095 135.358 45.1576 135.275 45.1727L135.212 45.2294Z" fill="#231F20"/>
<path d="M153.82 26.8933C153.82 26.8933 143.322 25.8547 139.037 28.3347C137.96 28.977 136.928 29.692 135.949 30.4749C133.624 32.294 131.438 34.3586 129.736 35.5105C126.359 37.7766 123.095 38.2361 120.87 34.6293C118.98 31.5512 120.083 30.0909 122.641 27.3528C123.901 25.9994 126.573 23.7649 128.873 21.2911C130.232 19.9159 131.379 18.346 132.276 16.6331C134.216 12.5542 133.668 6.30371 133.668 6.30371L153.82 26.8933Z" fill="white"/>
<path fill-rule="evenodd" clip-rule="evenodd" d="M124.008 37.4748C124.339 37.5491 124.678 37.585 125.017 37.5818C126.46 37.5818 128.098 36.9775 129.925 35.769C131.128 34.9105 132.284 33.9903 133.391 33.012C134.267 32.2629 135.206 31.4824 136.157 30.7333C137.124 29.9593 138.143 29.2526 139.207 28.6184C143.132 26.3363 152.606 27.1112 153.698 27.2005C153.76 27.2055 153.795 27.2084 153.801 27.2084C153.933 27.2186 154.059 27.146 154.116 27.0258C154.172 26.9079 154.149 26.7677 154.059 26.6733L133.895 6.06489C133.803 5.96583 133.658 5.93778 133.536 5.99565C133.416 6.05263 133.343 6.17779 133.353 6.31038C133.359 6.37333 133.882 12.542 131.992 16.5076C131.113 18.1919 129.985 19.7345 128.646 21.0837C127.317 22.4811 125.899 23.8282 124.639 24.999C123.731 25.8361 122.95 26.5663 122.408 27.1454C119.824 29.915 118.57 31.5076 120.606 34.8059C121.316 36.1319 122.55 37.0999 124.008 37.4748ZM132.566 16.7783C134.103 13.5114 134.109 8.99187 134.034 7.1035L153.026 26.5348C150.417 26.3397 142.553 25.9746 138.905 28.0959C137.806 28.7468 136.753 29.4724 135.754 30.2675C134.929 30.913 134.127 31.5865 133.344 32.2438C133.218 32.3493 133.093 32.4543 132.969 32.5588C131.882 33.5213 130.744 34.4248 129.56 35.2654C127.462 36.6691 125.64 37.2167 124.141 36.8894C122.852 36.5419 121.766 35.6756 121.141 34.4975C119.339 31.5579 120.347 30.2486 122.868 27.5735C123.38 27.0254 124.139 26.3206 125.009 25.5123L125.067 25.4585L125.09 25.437C126.351 24.2653 127.772 22.9445 129.106 21.5118C130.488 20.1142 131.654 18.5189 132.566 16.7783Z" fill="#231F20"/>
<path d="M136.51 30.0536C134.185 31.8727 131.375 34.2836 129.736 35.5047C125.993 38.2995 123.624 38.5953 121.179 35.1396C118.659 31.5895 120.083 30.104 122.641 27.3595C123.901 26.0062 126.573 23.7716 128.873 21.2979C128.873 21.2979 129.018 23.8723 131.583 27.0133C132.842 28.5452 134.575 29.6148 136.51 30.0536Z" fill="#231F20"/>
<path fill-rule="evenodd" clip-rule="evenodd" d="M124.412 37.9337C124.604 37.9645 124.797 37.9792 124.992 37.9777C126.34 37.9777 127.915 37.2727 129.925 35.7557C130.753 35.1402 131.87 34.2243 133.068 33.2421C133.157 33.1697 133.245 33.0969 133.334 33.0239C133.47 32.9135 133.606 32.8026 133.742 32.6916C134.745 31.872 135.762 31.0419 136.706 30.3046C136.8 30.2244 136.844 30.0989 136.819 29.9773C136.786 29.8584 136.688 29.7684 136.567 29.7444C134.708 29.3126 133.043 28.2819 131.828 26.8112C129.371 23.7961 129.188 21.2782 129.188 21.2782C129.18 21.1527 129.099 21.0438 128.98 21.0013C128.863 20.9565 128.73 20.9891 128.646 21.0831C127.317 22.4805 125.899 23.8275 124.639 24.9983C124.565 25.0664 124.492 25.1337 124.42 25.2001C123.606 25.9507 122.903 26.598 122.377 27.1762L122.368 27.1855C119.815 29.9244 118.271 31.5804 120.921 35.3214C122.043 36.9077 123.152 37.7385 124.412 37.9337ZM125.067 25.4578C126.195 24.4129 127.455 23.2421 128.659 21.9832C129.127 23.9112 130.045 25.7013 131.337 27.2077C132.502 28.6226 134.058 29.6645 135.811 30.2039C134.878 30.9467 133.895 31.7524 132.937 32.5392C132.697 32.7361 132.459 32.9319 132.225 33.1243C131.202 33.965 130.26 34.7399 129.547 35.2522C127.361 36.8825 125.811 37.5119 124.506 37.3105C123.429 37.1406 122.452 36.3915 121.438 34.9563C119.094 31.6354 120.341 30.2929 122.848 27.5945L122.868 27.5728C123.38 27.0247 124.139 26.32 125.009 25.5117L125.067 25.4578Z" fill="#231F20"/>
<path d="M156.731 26.0058C154.38 28.1144 149.169 26.3583 144.097 22.0717C142.797 20.9752 141.576 19.7889 140.442 18.5215C139.328 17.2777 138.301 15.959 137.367 14.5748C133.586 9.023 132.408 3.64743 134.777 1.52616C137.701 -1.09867 144.998 2.25004 151.066 9.01041C157.134 15.7708 159.667 23.3746 156.731 26.0058Z" fill="#7C5DFA"/>
<path fill-rule="evenodd" clip-rule="evenodd" d="M134.336 1.06647C135.193 0.33853 136.294 -0.0391769 137.418 0.00898095C141.299 0.00898095 146.819 3.37658 151.52 8.56331C154.291 11.5348 156.447 15.0237 157.865 18.8298C159.044 22.2918 158.773 24.9984 157.153 26.4462C156.294 27.1893 155.182 27.5765 154.047 27.5289C151.23 27.5289 147.449 25.7034 143.668 22.5561C141.054 20.3275 138.753 17.7571 136.825 14.9145C132.774 8.93469 131.772 3.36399 134.336 1.06647ZM151.047 9.01652C146.384 3.82349 140.99 0.638438 137.418 0.638438C136.458 0.596545 135.517 0.912915 134.777 1.52597C132.408 3.64724 133.587 9.02281 137.367 14.5746C138.296 15.9606 139.32 17.2814 140.43 18.5276C141.563 19.795 142.784 20.9813 144.084 22.0778C147.72 25.1369 151.394 26.9057 154.059 26.9057C155.026 26.9512 155.975 26.6322 156.718 26.0119C159.667 23.3807 157.122 15.7769 151.047 9.01652Z" fill="#231F20"/>
<path d="M148.287 16.8343L144.097 22.0714C142.797 20.9749 141.576 19.7886 140.442 18.5213C139.328 17.2775 138.301 15.9588 137.367 14.5746L143.429 10.8545L148.287 16.8343Z" fill="white"/>
<ellipse cx="145.847" cy="13.867" rx="1.79509" ry="3.85392" transform="rotate(-39.4 145.847 13.867)" fill="#231F20"/>
<path fill-rule="evenodd" clip-rule="evenodd" d="M144.204 15.1915C145.319 16.5512 146.655 17.3506 147.644 17.3506C147.942 17.3552 148.233 17.2599 148.47 17.0799C149.384 16.3245 148.936 14.3229 147.449 12.5163C146.85 11.7386 146.091 11.097 145.225 10.6343C144.38 10.2566 143.662 10.2503 143.189 10.6343C142.717 11.0182 142.585 11.7295 142.818 12.6359C143.097 13.575 143.569 14.4454 144.204 15.1915ZM143.586 11.1189C143.719 11.0205 143.882 10.9715 144.046 10.9805C144.354 10.9997 144.655 11.0834 144.929 11.2259C145.722 11.639 146.419 12.2137 146.977 12.9129C148.3 14.5243 148.621 16.142 148.079 16.5889C147.537 17.0358 146.012 16.4064 144.689 14.795C144.11 14.1204 143.681 13.3309 143.429 12.4786C143.265 11.8365 143.322 11.3392 143.586 11.1189Z" fill="#231F20"/>
<path d="M143.133 38.9159C143.077 38.9163 143.023 38.9011 142.975 38.8719C142.902 38.8311 142.849 38.7625 142.828 38.6818C142.807 38.6012 142.819 38.5153 142.862 38.4439C143.253 37.8034 143.737 37.2244 144.299 36.7254C144.382 36.6375 144.508 36.6051 144.623 36.6419C144.739 36.6788 144.823 36.7784 144.839 36.8982C144.856 37.0181 144.803 37.1369 144.702 37.2038C144.212 37.6642 143.788 38.1894 143.442 38.7649C143.377 38.8706 143.256 38.9294 143.133 38.9159Z" fill="#231F20"/>
<path d="M141.198 38.2485H141.148C141.066 38.2318 140.994 38.1833 140.948 38.1136C140.902 38.044 140.885 37.9589 140.902 37.8771C141.13 36.9787 141.662 36.1869 142.408 35.6362C142.547 35.5319 142.745 35.5601 142.849 35.6992C142.954 35.8382 142.925 36.0355 142.786 36.1398C142.169 36.5995 141.725 37.2537 141.526 37.9967C141.492 38.1489 141.354 38.2551 141.198 38.2485Z" fill="#231F20"/>
<path d="M145.66 38.6956C145.596 38.6961 145.534 38.6762 145.483 38.639C145.414 38.5908 145.368 38.5171 145.353 38.4344C145.339 38.3517 145.359 38.2667 145.408 38.1983L145.836 37.5689C145.94 37.4317 146.133 37.3987 146.277 37.4934C146.417 37.5957 146.451 37.7908 146.353 37.934L145.918 38.5634C145.86 38.6486 145.763 38.6984 145.66 38.6956Z" fill="#231F20"/>
<path d="M125.773 37.3428C125.705 37.3432 125.638 37.3211 125.584 37.2798C122.799 35.1649 121.072 32.5967 120.732 30.0537V29.9844C120.691 29.8472 120.748 29.6998 120.87 29.6256C120.941 29.5795 121.027 29.5641 121.109 29.5832C121.192 29.6022 121.262 29.6539 121.305 29.7263C121.343 29.8031 121.364 29.8866 121.368 29.9718C121.69 32.3512 123.322 34.7683 125.981 36.7763C126.09 36.8582 126.134 37.0014 126.09 37.1306C126.045 37.2598 125.922 37.3455 125.785 37.3428H125.773Z" fill="white"/>
<path d="M124.216 27.2961C124.129 27.295 124.046 27.2559 123.99 27.1891C123.93 27.1311 123.897 27.0517 123.897 26.9688C123.897 26.8859 123.93 26.8065 123.99 26.7485L127.38 23.6012C127.437 23.5404 127.517 23.5059 127.6 23.5059C127.684 23.5059 127.764 23.5404 127.821 23.6012C127.88 23.6592 127.913 23.7387 127.913 23.8215C127.913 23.9044 127.88 23.9838 127.821 24.0419L124.431 27.1891C124.377 27.2527 124.3 27.2915 124.216 27.2961Z" fill="white"/>
<path d="M124.683 28.0515C124.595 28.0492 124.511 28.0131 124.45 27.9508C124.329 27.8263 124.329 27.6284 124.45 27.5039L127.84 24.3566C127.962 24.2366 128.158 24.2366 128.281 24.3566C128.34 24.4157 128.374 24.4961 128.374 24.58C128.374 24.6639 128.34 24.7444 128.281 24.8035L124.897 27.9508C124.84 28.0094 124.764 28.0452 124.683 28.0515Z" fill="white"/>
<path d="M125.218 28.9207C125.132 28.9228 125.048 28.8859 124.992 28.82C124.932 28.762 124.899 28.6826 124.899 28.5997C124.899 28.5168 124.932 28.4374 124.992 28.3794L128.382 25.2321C128.439 25.1712 128.519 25.1367 128.602 25.1367C128.686 25.1367 128.766 25.1712 128.823 25.2321C128.882 25.2901 128.915 25.3695 128.915 25.4524C128.915 25.5353 128.882 25.6147 128.823 25.6727L125.433 28.82C125.378 28.8819 125.301 28.9184 125.218 28.9207Z" fill="white"/>
<path d="M69.1373 77.4703L67.5557 112.355C67.5557 112.355 89.1374 112.613 101.551 107.433C102.568 104.107 103.797 100.851 105.231 97.6822C107.052 94.0062 114.872 88.5865 112.414 74.5119C112.414 74.5119 130.839 86.1568 136.031 80.8065C141.224 75.4561 143.82 50.4666 143.82 50.4666L133.032 47.0046L128.13 62.4137C128.13 62.4137 97.0392 47.3886 89.7928 45.4876C87.1021 44.7826 78.7404 49.2266 69.1562 55.3764" fill="#7C5DFA"/>
<path d="M89.1248 55.9492C89.1248 55.9492 94.1216 71.459 94.9786 78.0243C95.8356 84.5895 95.9616 95.4414 95.9616 95.4414C95.9616 95.4414 103.87 71.245 102.893 56.3017L89.1248 55.9492Z" fill="#231F20"/>
<path fill-rule="evenodd" clip-rule="evenodd" d="M95.9239 95.7242H95.9617C96.0855 95.7269 96.1961 95.6473 96.2327 95.5291C96.3083 95.3088 104.141 71.1062 103.164 56.2824C103.157 56.1379 103.038 56.0242 102.893 56.0244L89.1312 55.6719C89.0416 55.672 88.9573 55.7145 88.9039 55.7864C88.8505 55.8584 88.8343 55.9512 88.8602 56.037C88.8605 56.0379 88.861 56.0395 88.8617 56.0416C88.9718 56.3848 93.8624 71.6372 94.7015 78.068C95.5459 84.5388 95.6845 95.3466 95.6845 95.4536C95.6863 95.5905 95.7881 95.7056 95.9239 95.7242ZM95.256 77.9861C94.4809 72.0378 90.2717 58.6429 89.5093 56.2384L102.628 56.5846C103.359 69.0667 97.9277 88.0575 96.2075 93.7226C96.1319 90.3927 95.8861 82.9337 95.256 77.9861Z" fill="#231F20"/>
<path d="M63.9514 130.874H123.504L101.57 107.433L67.5746 112.355C67.5746 112.355 63.504 121.558 63.8884 128.016C63.9136 128.778 63.9325 129.753 63.9514 130.874Z" fill="#231F20"/>
<path fill-rule="evenodd" clip-rule="evenodd" d="M63.9513 131.188H123.504H123.511C123.636 131.189 123.75 131.115 123.801 131C123.852 130.885 123.829 130.751 123.744 130.659L101.809 107.218C101.738 107.143 101.635 107.105 101.532 107.118L67.5052 112.04C67.4004 112.058 67.3112 112.126 67.2657 112.222C67.0956 112.606 63.1699 121.57 63.5543 128.034C63.5984 128.809 63.6362 129.822 63.6362 130.88C63.6362 130.962 63.6696 131.042 63.7289 131.1C63.7881 131.158 63.8683 131.19 63.9513 131.188ZM122.773 130.559H64.2726C64.2726 129.686 64.2355 128.856 64.205 128.176C64.2023 128.115 64.1996 128.055 64.197 127.997C63.8442 122.149 67.2531 113.897 67.7887 112.638L101.45 107.766L122.773 130.559Z" fill="#231F20"/>
<path d="M101.179 47.6085L102.887 56.3013C102.887 56.3013 102.931 61.337 97.348 60.8523C94.0074 60.539 90.9863 58.7375 89.1249 55.9488L86.8628 40.7663C87.0575 38.0019 86.8323 35.2239 86.1948 32.5267C92.6158 31.1986 96.762 25.3887 96.762 25.3887C96.762 25.3887 99.6039 28.2842 100.763 29.1654C101.696 29.8038 102.543 30.559 103.284 31.4126C104.5 32.917 104.859 35.0194 105.174 36.8763C105.571 39.0802 105.767 41.3155 105.76 43.5548C105.659 47.8036 101.179 47.6085 101.179 47.6085Z" fill="white"/>
<path fill-rule="evenodd" clip-rule="evenodd" d="M97.3228 61.1734H98.0727C99.3505 61.2382 100.605 60.8151 101.582 59.99C102.56 59.0048 103.112 57.676 103.12 56.2888L101.475 47.9359C102.673 47.8966 103.821 47.4528 104.733 46.677C105.569 45.867 106.027 44.7433 105.993 43.5801C106 41.3238 105.802 39.0716 105.401 36.8512C105.099 35.032 104.714 32.8415 103.454 31.2553C102.714 30.3886 101.867 29.6187 100.933 28.9641C100.084 28.3277 98.2949 26.5478 97.4365 25.6938C97.1485 25.4074 96.9653 25.2251 96.9573 25.2251C96.8999 25.1615 96.8158 25.1288 96.7305 25.137C96.6451 25.144 96.567 25.1876 96.5163 25.2566C96.4785 25.3132 92.3637 31.0224 86.1318 32.2813C86.0566 32.2974 85.9909 32.3427 85.9491 32.4072C85.9056 32.4695 85.8917 32.5478 85.9113 32.6212C86.5002 35.0633 86.7252 37.5788 86.5792 40.0866C86.554 40.3398 86.554 40.595 86.5792 40.8482C86.5855 40.9238 88.8413 56.0307 88.8413 56.0307C88.8483 56.0681 88.861 56.1043 88.8792 56.1377C90.781 59.0112 93.8883 60.8643 97.3228 61.1734ZM97.3732 60.5691C94.1478 60.2513 91.229 58.5226 89.4022 55.8482C87.1652 40.8734 87.1904 40.716 87.1904 40.716C87.1735 40.5066 87.1735 40.2961 87.1904 40.0866C87.3359 37.6246 87.1236 35.1546 86.5603 32.7534C92.1369 31.4945 95.9113 26.9939 96.8124 25.8294C97.4993 26.5469 99.6102 28.6493 100.593 29.3858C101.495 30.0134 102.314 30.7514 103.032 31.5826C104.193 32.9991 104.53 34.9781 104.831 36.7442C104.841 36.799 104.85 36.8535 104.859 36.9078C105.255 39.095 105.451 41.3134 105.445 43.536C105.479 44.5365 105.099 45.5067 104.393 46.2175C103.49 46.9513 102.356 47.3416 101.192 47.319C101.102 47.3119 101.015 47.3496 100.959 47.4198C100.904 47.4891 100.881 47.5782 100.896 47.6652L102.597 56.3014C102.567 57.5107 102.081 58.6641 101.236 59.5305C100.335 60.3614 99.0368 60.7076 97.3732 60.5691Z" fill="#231F20"/>
<path d="M101.942 51.8896C101.942 51.8896 98.4381 52.7142 95.7159 50.7943C92.9938 48.8745 92.8804 46.4385 92.8804 46.4385C92.8804 46.4385 97.1904 48.2702 101.179 47.6093L101.942 51.8896Z" fill="#231F20"/>
<path fill-rule="evenodd" clip-rule="evenodd" d="M95.5584 51.0206C96.9022 51.9198 98.4908 52.3835 100.108 52.3487C100.754 52.3577 101.398 52.2944 102.03 52.1599C102.176 52.1283 102.271 51.9861 102.244 51.8389L101.475 47.5585C101.45 47.4099 101.309 47.3092 101.16 47.3319C97.6194 47.9214 93.7492 46.4573 93.1054 46.2137C93.048 46.192 93.0163 46.18 93.0127 46.18C92.9252 46.1421 92.8241 46.1542 92.748 46.2115C92.6666 46.2628 92.6205 46.3549 92.6283 46.4507C92.6283 46.5892 92.7543 49.0441 95.5584 51.0206ZM95.8986 50.5673C94.5917 49.704 93.6511 48.3877 93.2584 46.8724C94.4304 47.3131 97.7323 48.3705 100.977 47.9236L101.645 51.6689C100.807 51.8263 98.0726 52.1032 95.8986 50.5673Z" fill="#231F20"/>
<path d="M96.5288 32.7852C96.5288 32.7852 100.127 36.436 99.5975 37.2858C99.0682 38.1355 97.1148 38.0159 97.1148 38.0159" fill="white"/>
<path d="M97.4172 38.2996H97.0959C97.0223 38.2948 96.9536 38.2608 96.9052 38.2053C96.8567 38.1498 96.8323 38.0773 96.8375 38.0038C96.8476 37.8498 96.9793 37.7322 97.1337 37.7394C97.6315 37.7394 99.024 37.7394 99.3643 37.1477C99.5786 36.7952 98.1671 34.8502 96.3334 32.987C96.2255 32.8775 96.2269 32.7014 96.3366 32.5936C96.4462 32.4858 96.6225 32.4872 96.7304 32.5967C97.8583 33.7423 100.417 36.5057 99.8369 37.4436C99.358 38.2052 98.0411 38.2996 97.4172 38.2996Z" fill="#231F20"/>
<ellipse cx="101.299" cy="33.8747" rx="0.5" ry="0.919057" transform="rotate(-13.01 101.299 33.8747)" fill="#231F20"/>
<ellipse cx="93.271" cy="34.6901" rx="0.5" ry="0.919057" transform="rotate(-13.01 93.271 34.6901)" fill="#231F20"/>
<path d="M88.9232 35.7557C88.0473 34.3394 85.9994 34.1443 84.569 34.7171C83.5983 35.064 82.9369 35.9665 82.8992 36.9958C82.8882 37.6136 82.9995 38.2276 83.2268 38.8023C83.6074 39.8798 84.1795 40.8799 84.9156 41.7545C85.2586 42.212 85.7115 42.5757 86.2325 42.8119C86.9039 43.0488 87.652 42.8545 88.1229 42.321" fill="white"/>
<path d="M86.825 43.2155C86.5877 43.2152 86.3525 43.1704 86.1318 43.0833C85.5666 42.8271 85.0732 42.4358 84.6951 41.9439C83.9389 41.042 83.3499 40.0124 82.956 38.9037C82.7155 38.2904 82.5978 37.636 82.6094 36.9775C82.6591 35.8408 83.3908 34.8464 84.462 34.4597C86.0373 33.8302 88.2427 34.082 89.169 35.6116C89.2349 35.7456 89.1881 35.9077 89.0608 35.9859C88.9335 36.0641 88.7676 36.0329 88.6775 35.9137C87.8899 34.6548 86.031 34.4471 84.6762 34.9884C83.8115 35.2947 83.2186 36.0935 83.1765 37.009C83.168 37.5902 83.2729 38.1674 83.4853 38.7085C83.8553 39.7535 84.4102 40.7236 85.1236 41.5726C85.438 41.9905 85.8516 42.3237 86.3272 42.5419C86.8968 42.742 87.5309 42.5749 87.9277 42.1202C87.9956 42.0305 88.1094 41.9881 88.2195 42.0116C88.3296 42.0352 88.4161 42.1203 88.4414 42.2299C88.4666 42.3395 88.426 42.4538 88.3373 42.523C87.9458 42.9462 87.4014 43.1955 86.825 43.2155Z" fill="#231F20"/>
<path d="M100.058 39.1494L95.842 39.5586C95.842 39.5586 96.7179 46.0672 98.6146 45.8909C100.511 45.7147 100.518 41.0126 100.058 39.1494Z" fill="white"/>
<path fill-rule="evenodd" clip-rule="evenodd" d="M95.5646 39.5963C95.7096 40.7105 96.5476 46.1742 98.5325 46.1742L98.6396 46.1679C99.1009 46.1141 99.5131 45.855 99.7613 45.4629C100.807 43.9962 100.688 40.5279 100.328 39.0802C100.295 38.9473 100.169 38.8589 100.032 38.8725L95.8104 39.2816C95.7344 39.2869 95.6649 39.3263 95.6213 39.3886C95.5714 39.4454 95.5505 39.5221 95.5646 39.5963ZM98.5325 45.6139C97.4172 45.6139 96.5098 42.1897 96.1569 39.8104L99.8432 39.4767C100.171 41.063 100.133 43.9774 99.3076 45.1419C99.1507 45.3984 98.8872 45.5716 98.5892 45.6139H98.5325Z" fill="#231F20"/>
<path d="M110.606 89.6188C110.502 89.6187 110.407 89.5625 110.358 89.4722C110.308 89.3819 110.311 89.2717 110.366 89.1845C110.41 89.1027 115.042 81.3226 110.612 65.1204C110.575 64.9681 110.664 64.8135 110.814 64.7679C110.887 64.7467 110.966 64.7562 111.033 64.7942C111.099 64.8321 111.147 64.8953 111.166 64.9693C115.672 81.4359 111.053 89.1656 110.851 89.5181C110.792 89.5913 110.699 89.6292 110.606 89.6188Z" fill="#231F20"/>
<path d="M24.9087 67.1035L92.9369 116.132L160.965 67.1035V147.536H24.9087V67.1035Z" fill="white"/>
<path fill-rule="evenodd" clip-rule="evenodd" d="M24.5938 147.535C24.5938 147.709 24.7349 147.85 24.9089 147.85H160.965C161.138 147.847 161.277 147.708 161.28 147.535V67.1033C161.28 66.9847 161.211 66.8771 161.104 66.8263C161.004 66.7636 160.877 66.7636 160.776 66.8263L92.9371 115.716L25.0916 66.8263C24.9914 66.7636 24.8642 66.7636 24.764 66.8263C24.6582 66.8777 24.5918 66.9857 24.5938 67.1033V147.535ZM160.682 147.221H25.2051V67.7201L92.7481 116.383C92.8588 116.464 93.0092 116.464 93.1199 116.383L160.682 67.7201V147.221Z" fill="#231F20"/>
<path d="M24.9087 147.85C24.7932 147.85 24.6869 147.788 24.6314 147.686C24.5501 147.535 24.6029 147.346 24.7512 147.258L86.9949 111.688C87.1463 111.603 87.3379 111.656 87.4233 111.807C87.4664 111.879 87.4787 111.965 87.4573 112.045C87.4359 112.126 87.3828 112.195 87.3099 112.235L25.0599 147.806C25.014 147.833 24.962 147.848 24.9087 147.85Z" fill="#231F20"/>
<path d="M160.965 147.85C160.91 147.848 160.856 147.833 160.808 147.806L98.5641 112.235C98.413 112.15 98.3594 111.958 98.4444 111.807C98.5321 111.659 98.7211 111.606 98.8729 111.688L161.117 147.258C161.268 147.344 161.321 147.535 161.236 147.686C161.183 147.786 161.079 147.849 160.965 147.85Z" fill="#231F20"/>
<path d="M57.3414 110.643C57.3414 110.643 60.0951 117.806 60.7441 118.196C61.3931 118.586 69.0618 121.721 68.5135 123.188C67.9653 124.654 64.5123 122.867 64.5123 122.867C64.5123 122.867 69.4839 128.614 68.1733 129.627C66.8626 130.64 62.4518 132.699 60.6811 131.862C58.9105 131.024 50.0824 120.097 48.2109 115.351" fill="white"/>
<path d="M61.7521 132.391C61.3413 132.403 60.9327 132.326 60.5549 132.164C58.6645 131.264 49.7797 120.204 47.9209 115.483C47.8804 115.378 47.8994 115.258 47.9707 115.17C48.0421 115.083 48.155 115.039 48.2669 115.057C48.3788 115.075 48.4727 115.151 48.5132 115.257C50.4036 120.097 59.2883 130.867 60.8195 131.623C62.3507 132.378 66.6545 130.464 67.9903 129.426C68.0484 129.372 68.0824 129.297 68.0849 129.218C68.2046 127.959 65.3753 124.39 64.3041 123.119C64.2052 123.004 64.2016 122.836 64.2956 122.717C64.3895 122.599 64.5544 122.564 64.6885 122.634C65.3186 122.961 67.1208 123.742 67.9273 123.433C68.077 123.383 68.1953 123.267 68.2487 123.119C68.3999 122.709 67.4043 121.683 61.7899 119.084C61.1094 118.769 60.7502 118.599 60.6053 118.505C59.9248 118.07 57.7319 112.481 57.0766 110.781C57.0459 110.703 57.048 110.615 57.0823 110.539C57.1167 110.462 57.1804 110.402 57.2593 110.372C57.4211 110.312 57.6008 110.394 57.6626 110.555C58.9733 113.96 60.5612 117.668 60.9519 117.982C61.059 118.051 61.519 118.265 62.0546 118.511C66.5789 120.601 69.2884 122.143 68.841 123.339C68.7236 123.657 68.4726 123.908 68.1542 124.025C67.3046 124.198 66.4218 124.097 65.6337 123.735C66.8498 125.252 68.8599 127.978 68.7339 129.275C68.7132 129.521 68.5926 129.749 68.3999 129.904C67.3602 130.691 64.008 132.391 61.7521 132.391Z" fill="#231F20"/>
<path d="M69.1559 55.4014C52.9491 65.8 33.2388 81.1021 31.5753 84.6774C28.9162 90.3425 48.8029 118.832 48.8029 118.832L59.5717 112.008L49.7292 90.651L69.137 77.4638" fill="#7C5DFA"/>
<path d="M56.7113 86.2447C56.6165 86.2473 56.5266 86.2025 56.4719 86.1251C56.3835 85.9939 56.414 85.8164 56.5412 85.7222L78.3309 70.4831C78.393 70.4373 78.4712 70.4188 78.5473 70.4318C78.6234 70.4449 78.6909 70.4884 78.7342 70.5523C78.7777 70.6157 78.7942 70.6938 78.78 70.7694C78.7658 70.845 78.7221 70.9118 78.6586 70.9552L56.8752 86.1943C56.8277 86.2288 56.77 86.2465 56.7113 86.2447Z" fill="#231F20"/>
<path d="M151.387 129.432L177.796 113.286L155.42 122.596L151.387 129.432Z" fill="#231F20"/>
<path fill-rule="evenodd" clip-rule="evenodd" d="M151.167 129.652C151.225 129.712 151.304 129.746 151.387 129.747C151.447 129.737 151.503 129.714 151.551 129.678L177.979 113.557C178.12 113.472 178.172 113.293 178.097 113.145C178.023 112.998 177.847 112.934 177.695 112.997L155.294 122.307C155.232 122.333 155.181 122.38 155.149 122.439L151.116 129.268C151.043 129.393 151.064 129.551 151.167 129.652ZM152.301 128.488L155.634 122.823L174.16 115.124L152.301 128.488Z" fill="#231F20"/>
<path d="M155.42 122.596L164.053 127.008L177.796 113.286L155.42 122.596Z" fill="white"/>
<path fill-rule="evenodd" clip-rule="evenodd" d="M163.92 127.261C163.961 127.283 164.007 127.294 164.053 127.292C164.131 127.297 164.207 127.267 164.261 127.21L178.004 113.488C178.103 113.394 178.119 113.242 178.042 113.129C177.965 113.017 177.821 112.972 177.695 113.022L155.307 122.332C155.204 122.379 155.137 122.478 155.13 122.59C155.124 122.702 155.187 122.806 155.288 122.854L163.92 127.261ZM163.996 126.656L156.101 122.628L176.561 114.111L163.996 126.656Z" fill="#231F20"/>
<path d="M177.796 113.286L149.365 120.072L142.9 116.377L177.796 113.286Z" fill="white"/>
<path fill-rule="evenodd" clip-rule="evenodd" d="M149.201 120.317C149.243 120.342 149.291 120.355 149.339 120.355L149.409 120.349L177.84 113.569C177.986 113.532 178.079 113.39 178.054 113.242C178.029 113.095 177.895 112.991 177.745 113.003L142.849 116.094C142.726 116.107 142.625 116.197 142.598 116.318C142.571 116.439 142.624 116.564 142.729 116.629L149.201 120.317ZM149.384 119.757L143.813 116.578L173.914 113.941L149.384 119.757Z" fill="#231F20"/>
<path d="M149.365 120.072L151.387 129.432L155.42 122.596L177.796 113.286L149.365 120.072Z" fill="white"/>
<path fill-rule="evenodd" clip-rule="evenodd" d="M151.343 129.722H151.388C151.498 129.731 151.604 129.674 151.658 129.577L155.641 122.829L177.909 113.557C178.059 113.509 178.141 113.348 178.092 113.199C178.043 113.049 177.883 112.967 177.733 113.016L149.302 119.795C149.228 119.812 149.164 119.857 149.124 119.921C149.084 119.985 149.071 120.062 149.088 120.135L151.104 129.502C151.131 129.617 151.226 129.704 151.343 129.722ZM151.514 128.645L149.705 120.28L174.374 114.395L155.307 122.326C155.25 122.351 155.202 122.393 155.168 122.445L151.514 128.645Z" fill="#231F20"/>
<path d="M145.559 130.735C145.42 130.732 145.3 130.639 145.263 130.506C145.225 130.373 145.279 130.231 145.395 130.156L146.447 129.482C146.593 129.387 146.79 129.428 146.885 129.574C146.981 129.72 146.94 129.915 146.794 130.011L145.729 130.691C145.677 130.72 145.618 130.735 145.559 130.735Z" fill="#D1D3D4"/>
<path fill-rule="evenodd" clip-rule="evenodd" d="M18.2058 111.822C18.256 111.939 18.3731 112.013 18.5005 112.009C18.5973 112.011 18.6899 111.969 18.7526 111.895C19.3197 111.291 19.9057 110.706 20.5358 110.152C20.5955 110.093 20.629 110.012 20.629 109.928C20.629 109.844 20.5955 109.764 20.5358 109.705C20.4778 109.646 20.3983 109.612 20.3153 109.612C20.2323 109.612 20.1528 109.646 20.0947 109.705C19.4646 110.271 18.8534 110.85 18.2737 111.48C18.1825 111.569 18.1556 111.705 18.2058 111.822ZM15.3499 115.911C15.2666 115.914 15.1855 115.885 15.1231 115.83C15.0546 115.782 15.0081 115.71 14.9938 115.628C14.9796 115.546 14.9989 115.462 15.0474 115.395C15.5263 114.703 16.043 114.017 16.5723 113.362C16.6824 113.229 16.8792 113.209 17.0134 113.318C17.1486 113.426 17.1711 113.623 17.0638 113.759C16.5408 114.388 16.0367 115.074 15.5642 115.754C15.5148 115.839 15.4288 115.897 15.331 115.911H15.3499ZM12.6026 120.236C12.6612 120.257 12.7253 120.26 12.7853 120.242L12.7664 120.236C12.8698 120.234 12.966 120.182 13.0247 120.097C13.3902 119.354 13.7872 118.618 14.2157 117.907C14.3023 117.755 14.2519 117.562 14.1023 117.472C14.0307 117.429 13.9448 117.417 13.864 117.438C13.7833 117.46 13.7147 117.513 13.6738 117.586C13.239 118.316 12.8294 119.065 12.4576 119.814C12.4207 119.889 12.4152 119.976 12.4424 120.055C12.4696 120.134 12.5273 120.199 12.6026 120.236ZM10.8949 124.9C10.8637 124.906 10.8316 124.906 10.8004 124.9C10.7199 124.875 10.6526 124.82 10.6135 124.745C10.5745 124.671 10.5669 124.584 10.5925 124.503C10.8382 123.71 11.1281 122.905 11.4494 122.111C11.5255 121.968 11.698 121.906 11.848 121.968C11.998 122.03 12.0764 122.196 12.0292 122.351C11.7204 123.125 11.4368 123.912 11.1911 124.692C11.1493 124.819 11.0288 124.904 10.8949 124.9ZM9.7544 129.803H9.79851C9.9607 129.801 10.0943 129.675 10.1073 129.514C10.2144 128.702 10.3656 127.877 10.5484 127.065C10.5671 126.983 10.5524 126.898 10.5074 126.827C10.4625 126.756 10.391 126.706 10.3089 126.688C10.1389 126.652 9.97145 126.758 9.93084 126.927C9.7418 127.777 9.59687 128.62 9.48345 129.445C9.46092 129.618 9.58136 129.777 9.7544 129.803ZM141.211 133.31C141.07 133.308 140.947 133.213 140.91 133.077C140.873 132.94 140.932 132.796 141.053 132.724C141.866 132.258 142.597 131.837 143.227 131.465C143.299 131.421 143.385 131.408 143.467 131.428C143.549 131.448 143.619 131.5 143.662 131.572C143.75 131.722 143.702 131.915 143.555 132.007C142.925 132.384 142.188 132.812 141.368 133.265C141.326 133.29 141.279 133.305 141.23 133.31H141.211ZM9.26291 134.524C9.27292 134.691 9.41109 134.821 9.57797 134.82H9.59687C9.68049 134.815 9.75872 134.777 9.81429 134.715C9.86986 134.652 9.8982 134.57 9.89303 134.487C9.85522 134.008 9.85522 133.517 9.85522 133.033V132.007C9.85863 131.923 9.82867 131.842 9.77193 131.78C9.71519 131.719 9.63635 131.683 9.55276 131.679C9.46873 131.674 9.38624 131.703 9.32438 131.76C9.26252 131.817 9.22666 131.897 9.2251 131.981V133.033C9.2251 133.282 9.23461 133.533 9.24409 133.783C9.25351 134.032 9.26291 134.28 9.26291 134.524ZM136.8 135.746C136.684 135.747 136.577 135.684 136.523 135.582C136.443 135.429 136.498 135.239 136.649 135.154C137.359 134.776 138.033 134.409 138.671 134.061L138.861 133.958C138.959 133.888 139.09 133.881 139.195 133.939C139.301 133.998 139.364 134.112 139.357 134.233C139.351 134.353 139.275 134.459 139.163 134.505C138.47 134.889 137.733 135.292 136.945 135.714C136.906 135.734 136.863 135.745 136.819 135.746H136.8ZM132.043 137.892C132.094 138.001 132.205 138.07 132.326 138.068C132.375 138.067 132.423 138.054 132.465 138.03C133.246 137.64 133.996 137.256 134.714 136.885C134.869 136.805 134.93 136.615 134.85 136.46C134.77 136.305 134.579 136.245 134.425 136.325C133.706 136.702 132.956 137.08 132.181 137.47C132.027 137.549 131.965 137.737 132.043 137.892ZM10.4223 139.749C10.2805 139.748 10.1567 139.653 10.1199 139.516C9.88914 138.698 9.70402 137.868 9.56536 137.03C9.53752 136.856 9.65601 136.692 9.83002 136.665C10.004 136.637 10.1676 136.755 10.1955 136.929C10.3214 137.752 10.4939 138.568 10.7122 139.371C10.7356 139.451 10.7262 139.537 10.686 139.611C10.6458 139.684 10.5782 139.738 10.4979 139.761L10.4223 139.749ZM127.531 140.095C127.582 140.205 127.693 140.275 127.815 140.271C127.86 140.272 127.905 140.264 127.947 140.246L130.222 139.151C130.378 139.074 130.443 138.886 130.367 138.729C130.29 138.573 130.101 138.508 129.944 138.584C129.213 138.943 128.457 139.308 127.676 139.673C127.601 139.71 127.543 139.775 127.516 139.854C127.489 139.933 127.494 140.02 127.531 140.095ZM123.234 142.374C123.11 142.372 122.998 142.302 122.944 142.191C122.908 142.115 122.906 142.027 122.937 141.948C122.967 141.87 123.029 141.808 123.107 141.776L123.38 141.653L123.612 141.549C124.218 141.276 124.812 141.008 125.395 140.737C125.553 140.664 125.741 140.733 125.814 140.891C125.887 141.05 125.818 141.237 125.66 141.31C124.91 141.656 124.147 142.002 123.36 142.349C123.32 142.366 123.277 142.375 123.234 142.374ZM12.3253 144.413C12.2095 144.415 12.1024 144.352 12.0481 144.25C11.6363 143.506 11.2681 142.738 10.9453 141.952C10.9026 141.847 10.9189 141.728 10.9882 141.639C11.0574 141.549 11.1691 141.504 11.2812 141.519C11.3932 141.534 11.4886 141.608 11.5314 141.713C11.841 142.479 12.1988 143.226 12.6026 143.947C12.6829 144.101 12.6272 144.29 12.4765 144.375C12.4298 144.4 12.378 144.413 12.3253 144.413ZM113.632 146.143C113.706 146.23 113.82 146.271 113.933 146.251V146.257C113.974 146.257 114.014 146.251 114.053 146.239L116.397 145.282C116.557 145.213 116.633 145.028 116.567 144.866C116.5 144.707 116.317 144.631 116.157 144.696L113.819 145.622C113.707 145.642 113.614 145.721 113.575 145.828C113.536 145.936 113.558 146.056 113.632 146.143ZM14.997 148.391C15.0585 148.459 15.1452 148.498 15.2365 148.498V148.505C15.323 148.509 15.4073 148.477 15.4696 148.417C15.5905 148.292 15.5905 148.094 15.4696 147.97C14.9161 147.356 14.3986 146.711 13.9195 146.037C13.8588 145.935 13.7456 145.875 13.6267 145.884C13.5079 145.892 13.4039 145.966 13.3579 146.076C13.3118 146.186 13.3317 146.312 13.4091 146.402C13.9007 147.094 14.4309 147.759 14.997 148.391ZM104.468 149.694C104.294 149.722 104.131 149.604 104.103 149.43C104.075 149.256 104.194 149.093 104.368 149.065C105.168 148.794 105.962 148.524 106.743 148.247C106.908 148.192 107.087 148.278 107.146 148.442C107.175 148.519 107.17 148.605 107.135 148.679C107.099 148.754 107.035 148.811 106.957 148.838C106.17 149.115 105.376 149.392 104.569 149.663L104.468 149.694ZM18.9479 151.879C18.8797 151.879 18.8132 151.857 18.7589 151.816C18.072 151.306 17.4104 150.764 16.7929 150.204C16.7332 150.145 16.6997 150.065 16.6997 149.981C16.6997 149.897 16.7332 149.816 16.7929 149.757C16.851 149.698 16.9305 149.665 17.0134 149.665C17.0964 149.665 17.1759 149.698 17.234 149.757C17.8479 150.314 18.4894 150.839 19.1559 151.331C19.2951 151.435 19.3233 151.632 19.2189 151.772C19.1509 151.848 19.0502 151.888 18.9479 151.879ZM94.5566 152.464C94.593 152.596 94.7126 152.688 94.8494 152.691H94.8464C94.8805 152.694 94.9151 152.69 94.9472 152.678C95.7601 152.451 96.5667 152.212 97.3669 151.973C97.4481 151.951 97.5169 151.897 97.5573 151.823C97.5978 151.75 97.6064 151.663 97.5812 151.583C97.5297 151.418 97.3557 151.326 97.1905 151.375L94.7771 152.074C94.6098 152.122 94.512 152.296 94.5566 152.464ZM23.0563 154.484C23.1012 154.508 23.1507 154.521 23.2013 154.522V154.535C23.3753 154.575 23.5488 154.466 23.5888 154.292C23.6288 154.119 23.5202 153.945 23.3462 153.905C22.5963 153.521 21.8654 153.112 21.1786 152.691C21.1081 152.644 21.0217 152.629 20.9396 152.648C20.8575 152.667 20.7868 152.719 20.7438 152.791C20.6993 152.862 20.685 152.948 20.7039 153.029C20.7228 153.111 20.7735 153.181 20.8446 153.226C21.5503 153.672 22.2939 154.094 23.0563 154.484ZM85.0732 155.196C84.9606 155.208 84.85 155.16 84.783 155.068C84.716 154.977 84.7028 154.857 84.7483 154.754C84.7939 154.65 84.8913 154.579 85.0039 154.566C85.823 154.377 86.6359 154.189 87.4487 153.987C87.6174 153.948 87.7863 154.052 87.8268 154.22C87.8477 154.302 87.8347 154.389 87.7909 154.461C87.747 154.533 87.676 154.585 87.5937 154.604L87.5931 154.604L87.5925 154.604L87.5919 154.604L87.5913 154.605L87.5907 154.605L87.5901 154.605L87.5895 154.605L87.5889 154.605L87.5883 154.605L87.5877 154.605L87.5871 154.606L87.5865 154.606L87.5859 154.606L87.5853 154.606L87.5847 154.606L87.5842 154.606L87.5836 154.606L87.583 154.607L87.5824 154.607L87.5818 154.607L87.5812 154.607L87.5806 154.607L87.58 154.607L87.5794 154.607C86.7713 154.801 85.9632 154.995 85.1425 155.177L85.0732 155.196ZM27.8453 156.492C27.8119 156.498 27.7778 156.498 27.7445 156.492C26.9379 156.209 26.1376 155.901 25.3752 155.58C25.2981 155.547 25.2375 155.484 25.2067 155.406C25.176 155.328 25.1777 155.241 25.2114 155.164C25.2805 155.007 25.4626 154.935 25.6209 155.001C26.3708 155.315 27.1584 155.63 27.9524 155.901C28.1264 155.93 28.2435 156.095 28.2139 156.269C28.1843 156.443 28.0193 156.56 27.8453 156.53V156.492ZM74.9156 156.92C74.9405 157.071 75.0717 157.181 75.2243 157.179H75.281L77.7637 156.732C77.9339 156.7 78.0464 156.537 78.0158 156.367C78.0021 156.284 77.9554 156.211 77.8865 156.163C77.8176 156.116 77.7324 156.098 77.6503 156.115L75.1739 156.555C75.0032 156.587 74.8888 156.749 74.9156 156.92ZM32.6909 157.902H32.6153C31.7773 157.707 30.9518 157.493 30.1641 157.273C29.9994 157.221 29.9048 157.049 29.9499 156.883C29.9986 156.716 30.1735 156.62 30.3406 156.669C31.1219 156.889 31.9348 157.103 32.7602 157.298C32.8421 157.316 32.9131 157.366 32.9571 157.438C33.001 157.509 33.0141 157.595 32.9934 157.676C32.9506 157.812 32.8212 157.903 32.6783 157.896L32.6909 157.902ZM69.9376 157.695C69.9622 157.85 70.0955 157.964 70.2527 157.965L70.2716 157.959L72.7921 157.588C72.875 157.574 72.9489 157.528 72.9974 157.459C73.0459 157.39 73.065 157.305 73.0504 157.223C73.0381 157.14 72.993 157.066 72.9253 157.018C72.8577 156.969 72.7733 156.95 72.6912 156.965L70.2085 157.336C70.1246 157.347 70.0486 157.391 69.9977 157.458C69.9467 157.526 69.925 157.611 69.9376 157.695ZM65.2558 158.595C65.1432 158.602 65.0356 158.548 64.9735 158.454C64.9113 158.36 64.9041 158.24 64.9546 158.139C65.005 158.038 65.1054 157.972 65.218 157.965C66.0581 157.873 66.8983 157.772 67.7385 157.663C67.9125 157.641 68.0719 157.763 68.0945 157.937C68.1171 158.111 67.9944 158.27 67.8204 158.293L65.2999 158.589L65.2558 158.595ZM37.587 158.821H37.6185C37.7729 158.814 37.8999 158.697 37.921 158.544C37.9336 158.462 37.9128 158.378 37.8632 158.31C37.8135 158.243 37.7391 158.198 37.6563 158.186C36.8182 158.066 35.9865 157.928 35.1862 157.777C35.0737 157.755 34.9582 157.795 34.8834 157.882C34.8086 157.969 34.7858 158.089 34.8236 158.197C34.8613 158.305 34.9539 158.385 35.0665 158.406C35.9046 158.557 36.7426 158.696 37.587 158.821ZM60.24 159.08C60.066 159.08 59.9249 158.939 59.9249 158.765C59.9249 158.591 60.066 158.45 60.24 158.45C61.078 158.381 61.9098 158.305 62.7605 158.223C62.9326 158.212 63.0842 158.336 63.107 158.507C63.1158 158.59 63.0908 158.674 63.0376 158.739C62.9843 158.804 62.9072 158.845 62.8235 158.853C61.9833 158.933 61.1432 159.008 60.303 159.08H60.24ZM40.1201 159.136C40.9456 159.224 41.7836 159.3 42.6406 159.363H42.7099C42.8839 159.363 43.025 159.222 43.025 159.048C43.025 158.874 42.8839 158.733 42.7099 158.733C41.834 158.67 41.0023 158.595 40.1894 158.513C40.1061 158.501 40.0214 158.523 39.9556 158.576C39.8898 158.628 39.8489 158.706 39.8428 158.79C39.8244 158.962 39.9482 159.116 40.1201 159.136ZM55.2116 159.407C55.0459 159.407 54.9096 159.276 54.9028 159.111C54.8977 159.027 54.926 158.945 54.9816 158.883C55.0371 158.82 55.1154 158.782 55.199 158.777C56.037 158.74 56.8751 158.689 57.7195 158.633C57.8035 158.626 57.8867 158.653 57.9498 158.709C58.0128 158.765 58.0503 158.844 58.0534 158.928C58.0604 159.011 58.0335 159.093 57.9789 159.156C57.9244 159.219 57.8467 159.257 57.7636 159.262C56.9255 159.319 56.0875 159.369 55.2431 159.407H55.2116ZM45.4298 159.519H45.4299H45.43H45.4301H45.4302H45.4303H45.4304H45.4305H45.4306H45.4307H45.4308H45.4309H45.431H45.4311H45.4312H45.4314H45.4315H45.4316H45.4317L45.4319 159.519C46.1559 159.548 46.8982 159.577 47.6501 159.577H47.6564C47.7427 159.58 47.8267 159.549 47.8896 159.49C47.9524 159.43 47.9887 159.348 47.9904 159.262C47.9904 159.179 47.9572 159.099 47.8981 159.04C47.839 158.98 47.7589 158.947 47.6753 158.947C46.812 158.935 45.974 158.91 45.1548 158.878C45.0712 158.875 44.9897 158.905 44.9283 158.961C44.8668 159.018 44.8304 159.097 44.8271 159.18C44.8234 159.353 44.9571 159.497 45.1296 159.508L45.4298 159.519ZM49.8555 159.262C49.8589 159.434 49.998 159.573 50.1706 159.577H50.1769L51.6829 159.545L52.6974 159.514C52.7821 159.512 52.8625 159.477 52.9206 159.415C52.9787 159.353 53.0096 159.271 53.0061 159.187C52.993 159.016 52.85 158.884 52.6785 158.884L51.664 158.916L50.1643 158.947C49.9927 158.951 49.8555 159.091 49.8555 159.262ZM79.8368 156.001C79.8689 156.147 79.9967 156.251 80.1456 156.253L80.2086 156.247L82.6787 155.731C82.7603 155.714 82.8317 155.665 82.8768 155.596C82.9219 155.526 82.9368 155.44 82.9182 155.359C82.9015 155.278 82.8529 155.206 82.7832 155.16C82.7134 155.114 82.6283 155.097 82.5464 155.114L80.0826 155.63C80.0007 155.647 79.9288 155.695 79.8827 155.765C79.8366 155.835 79.8201 155.92 79.8368 156.001ZM89.6416 153.729C89.6621 153.9 89.815 154.023 89.9853 154.007C90.0152 154.015 90.0466 154.015 90.0764 154.006C90.8955 153.805 91.7084 153.595 92.5149 153.377C92.6275 153.347 92.7159 153.26 92.7468 153.148C92.7778 153.036 92.7466 152.916 92.6649 152.834C92.5833 152.751 92.4637 152.718 92.3511 152.747L89.9188 153.377C89.7448 153.397 89.6207 153.555 89.6416 153.729ZM99.377 151.029C99.4142 151.161 99.5358 151.251 99.6732 151.249V151.255C99.7056 151.255 99.7377 151.249 99.7677 151.236C100.581 150.985 101.381 150.733 102.175 150.475C102.34 150.421 102.43 150.243 102.376 150.078C102.352 149.998 102.296 149.931 102.221 149.893C102.146 149.855 102.059 149.849 101.979 149.877C101.761 149.946 101.543 150.016 101.324 150.086C100.748 150.27 100.17 150.454 99.5849 150.632C99.5044 150.657 99.4371 150.713 99.3981 150.787C99.359 150.862 99.3514 150.949 99.377 151.029ZM109.22 148.033C109.088 148.029 108.971 147.947 108.923 147.825C108.864 147.661 108.949 147.481 109.112 147.422C109.656 147.225 110.191 147.026 110.723 146.827L110.724 146.827L110.725 146.826L110.726 146.826C110.976 146.733 111.226 146.64 111.475 146.547C111.631 146.508 111.791 146.591 111.847 146.741C111.904 146.891 111.839 147.06 111.696 147.132C110.915 147.428 110.127 147.718 109.327 148.007C109.295 148.027 109.257 148.038 109.22 148.039V148.033ZM118.319 144.174C118.364 144.294 118.48 144.372 118.608 144.369C118.65 144.37 118.691 144.361 118.728 144.344L121.053 143.362C121.213 143.292 121.287 143.106 121.217 142.947C121.148 142.787 120.961 142.713 120.801 142.783C120.239 143.045 119.666 143.279 119.086 143.517C118.885 143.599 118.684 143.681 118.482 143.765C118.325 143.834 118.253 144.016 118.319 144.174Z" fill="#D1D3D4"/>
<path d="M22.2686 108.616C22.1726 108.616 22.0817 108.572 22.0229 108.496C21.9164 108.357 21.9417 108.158 22.0796 108.049C22.4199 107.798 22.7601 107.546 23.1067 107.3C23.1988 107.229 23.3227 107.214 23.4289 107.262C23.5351 107.31 23.6064 107.412 23.6141 107.528C23.6218 107.644 23.5648 107.755 23.4659 107.817C23.1256 108.056 22.7916 108.301 22.464 108.553C22.4077 108.595 22.339 108.617 22.2686 108.616Z" fill="#D1D3D4"/>
<path d="M163.58 71.0061C163.5 71.0086 163.422 70.9765 163.366 70.918C163.307 70.86 163.273 70.7806 163.273 70.6977C163.273 70.6148 163.307 70.5354 163.366 70.4774C163.366 70.4774 163.675 70.15 164.21 69.5584C164.279 69.4574 164.401 69.4054 164.521 69.425C164.642 69.4446 164.741 69.5324 164.774 69.65C164.807 69.7676 164.769 69.8939 164.677 69.9738C164.135 70.6033 163.82 70.9117 163.82 70.9117C163.758 70.9765 163.67 71.011 163.58 71.0061Z" fill="#D1D3D4"/>
<path fill-rule="evenodd" clip-rule="evenodd" d="M164.242 13.794H164.299V13.7752C164.446 13.7789 164.575 13.6789 164.608 13.536C164.634 13.3645 164.52 13.2028 164.349 13.1709C163.503 13.0261 162.648 12.9294 161.791 12.8813C161.706 12.8704 161.621 12.8967 161.557 12.9534C161.493 13.0101 161.456 13.0917 161.457 13.1772C161.452 13.2607 161.48 13.3428 161.536 13.4054C161.591 13.468 161.669 13.5059 161.753 13.5108C162.588 13.5564 163.419 13.651 164.242 13.794ZM169.151 15.2733C169.107 15.2819 169.062 15.2819 169.018 15.2733C168.26 14.9281 167.479 14.6337 166.681 14.392C166.568 14.3594 166.481 14.2693 166.453 14.1556C166.425 14.0419 166.46 13.922 166.545 13.8409C166.629 13.7598 166.751 13.73 166.863 13.7626C167.689 14.0099 168.498 14.3127 169.283 14.669C169.359 14.7032 169.418 14.7666 169.446 14.8448C169.475 14.9231 169.471 15.0095 169.434 15.0844C169.381 15.1911 169.27 15.2573 169.151 15.2544V15.2733ZM173.184 17.9485C173.242 17.9961 173.316 18.0227 173.391 18.024V18.0051C173.471 18.0051 173.547 17.976 173.606 17.9233C173.727 17.7988 173.727 17.6009 173.606 17.4764C172.959 16.9031 172.27 16.3791 171.545 15.909C171.451 15.841 171.326 15.8306 171.222 15.8821C171.117 15.9336 171.05 16.0385 171.046 16.1549C171.043 16.2713 171.104 16.3801 171.205 16.4378C171.902 16.8906 172.563 17.3956 173.184 17.9485ZM176.63 21.9077C176.521 21.9085 176.419 21.854 176.359 21.763C175.925 21.054 175.441 20.3766 174.91 19.7361C174.801 19.602 174.821 19.4055 174.954 19.2955C175.017 19.241 175.1 19.2142 175.183 19.2213C175.266 19.2284 175.342 19.2688 175.395 19.3333C175.942 19.9904 176.443 20.6844 176.895 21.4105C176.941 21.4809 176.956 21.5671 176.937 21.6492C176.918 21.7312 176.867 21.8019 176.794 21.8448C176.745 21.8748 176.688 21.8901 176.63 21.8889V21.9077ZM178.432 26.2951C178.476 26.4244 178.598 26.5108 178.735 26.5091V26.4902C178.768 26.498 178.802 26.5002 178.836 26.4965C178.998 26.4399 179.085 26.2632 179.031 26.0999C178.767 25.284 178.458 24.4833 178.105 23.7017C178.058 23.5994 177.959 23.53 177.847 23.5198C177.734 23.5095 177.625 23.5599 177.56 23.6519C177.495 23.744 177.484 23.8638 177.531 23.9661C177.874 24.7253 178.175 25.5028 178.432 26.2951ZM179.875 31.444C179.718 31.4429 179.585 31.3284 179.56 31.1734C179.441 30.3299 179.283 29.499 179.1 28.7059C179.062 28.5321 179.172 28.3602 179.346 28.3219C179.52 28.2837 179.692 28.3936 179.731 28.5674C179.913 29.3731 180.071 30.2229 180.197 31.0852C180.22 31.2565 180.103 31.415 179.932 31.444H179.875ZM179.97 36.1713C179.973 36.3426 180.113 36.4797 180.285 36.4797H180.291C180.464 36.4729 180.6 36.3312 180.6 36.1587C180.581 35.29 180.537 34.434 180.474 33.6094C180.468 33.5258 180.428 33.4482 180.364 33.3939C180.3 33.3395 180.217 33.3129 180.134 33.3198C180.051 33.3246 179.973 33.3627 179.918 33.4256C179.864 33.4884 179.837 33.5705 179.844 33.6534C179.907 34.4717 179.97 35.3152 179.97 36.1713ZM180.14 41.5531H180.109C179.937 41.5365 179.81 41.385 179.825 41.2132C179.825 41.0624 179.841 40.9137 179.858 40.7647C179.87 40.6524 179.883 40.54 179.888 40.4264C179.888 40.07 179.909 39.716 179.93 39.3672L179.93 39.3671L179.93 39.367L179.93 39.3669L179.93 39.3668L179.93 39.3667C179.943 39.1426 179.956 38.9207 179.964 38.7017C179.964 38.6176 179.998 38.5372 180.058 38.479C180.119 38.4208 180.201 38.3898 180.285 38.3932C180.458 38.4 180.594 38.5418 180.594 38.7143C180.594 39.1504 180.568 39.5902 180.542 40.0392L180.542 40.0393L180.542 40.0398C180.534 40.1803 180.526 40.3217 180.518 40.4642C180.518 40.6654 180.497 40.8632 180.476 41.0626L180.476 41.0627C180.469 41.1315 180.462 41.2005 180.455 41.2699C180.436 41.4299 180.301 41.5511 180.14 41.5531ZM178.987 46.5132H179.081H179.107C179.229 46.5144 179.341 46.4461 179.397 46.337C179.636 45.462 179.85 44.6249 180.027 43.8192C180.058 43.6495 179.949 43.4855 179.781 43.4478C179.612 43.4127 179.447 43.5192 179.409 43.687C179.245 44.4738 179.031 45.2921 178.779 46.1167C178.729 46.2833 178.822 46.4591 178.987 46.5132ZM177.248 51.2468C177.204 51.2557 177.159 51.2557 177.115 51.2468C177.04 51.2126 176.981 51.1492 176.952 51.0709C176.924 50.9927 176.928 50.9063 176.964 50.8313C177.323 50.0445 177.657 49.264 177.947 48.5086C177.977 48.4298 178.037 48.3661 178.114 48.3318C178.191 48.2975 178.278 48.2954 178.357 48.3261C178.519 48.3904 178.6 48.5719 178.54 48.7352C178.237 49.5032 177.909 50.2963 177.538 51.0894C177.481 51.1826 177.382 51.2416 177.273 51.2468H177.248ZM174.753 55.7159C174.8 55.7457 174.854 55.7611 174.91 55.76H174.935C175.038 55.7509 175.13 55.6921 175.181 55.6026C175.616 54.8473 176.032 54.0982 176.41 53.3617C176.49 53.207 176.429 53.0168 176.274 52.9368C176.119 52.8569 175.929 52.9175 175.849 53.0722C175.477 53.7961 175.068 54.5451 174.639 55.2879C174.596 55.3593 174.584 55.4452 174.605 55.5259C174.627 55.6065 174.68 55.6751 174.753 55.7159ZM172.213 60.0655C172.095 60.0691 171.985 60.0051 171.93 59.9007C171.875 59.7962 171.885 59.6696 171.955 59.5745C172.415 58.8884 172.881 58.1834 173.335 57.4532C173.429 57.3082 173.621 57.2637 173.77 57.3525C173.915 57.4465 173.958 57.6408 173.864 57.7868C173.429 58.4855 172.963 59.2031 172.478 59.927C172.424 60.0075 172.335 60.0586 172.238 60.0655H172.213ZM169.063 64.138C169.118 64.1764 169.184 64.1982 169.252 64.201L169.277 64.2136C169.369 64.204 169.453 64.1531 169.504 64.0751C170.001 63.4268 170.505 62.7406 171.022 62.0231C171.123 61.8805 171.089 61.6833 170.947 61.5824C170.804 61.4816 170.606 61.5154 170.505 61.658C169.995 62.3693 169.491 63.0617 169.006 63.6911C168.899 63.8306 168.925 64.0296 169.063 64.138ZM165.893 68.091C165.951 68.1395 166.025 68.1662 166.101 68.1666C166.205 68.1769 166.306 68.1343 166.372 68.0533C166.863 67.4742 167.412 66.8132 167.991 66.0831C168.044 66.0185 168.069 65.9351 168.06 65.8521C168.05 65.769 168.007 65.6934 167.941 65.6424C167.805 65.5353 167.608 65.5578 167.5 65.6928C167.228 66.0209 166.964 66.3447 166.71 66.656C166.424 67.0077 166.15 67.3432 165.893 67.6504C165.834 67.7084 165.8 67.7878 165.8 67.8707C165.8 67.9536 165.834 68.033 165.893 68.091Z" fill="#D1D3D4"/>
<path d="M157.953 13.6114C157.841 13.6204 157.732 13.5687 157.668 13.4758C157.604 13.383 157.594 13.263 157.643 13.1611C157.691 13.0592 157.79 12.9909 157.903 12.9819C158.32 12.9167 158.741 12.8747 159.163 12.856C159.337 12.8456 159.487 12.9781 159.497 13.1519C159.508 13.3257 159.375 13.4751 159.201 13.4855C158.439 13.5296 157.985 13.5988 157.985 13.5988L157.953 13.6114Z" fill="#D1D3D4"/>
<path d="M1.90086 42.0111C0.998558 40.9083 1.16196 39.2826 2.2657 38.3815L19.7488 24.1073C20.8509 23.2074 22.4736 23.3706 23.3746 24.4717L30.1066 32.6996C31.0089 33.8024 30.8455 35.4281 29.7417 36.3292L12.2587 50.6034C11.1566 51.5033 9.53383 51.3402 8.63285 50.239L1.90086 42.0111Z" fill="white"/>
<path fill-rule="evenodd" clip-rule="evenodd" d="M10.3024 51.8956H10.4977C10.9394 51.8965 11.3675 51.7428 11.7076 51.4613L30.7058 35.9515C31.1037 35.6344 31.3567 35.1704 31.4077 34.6646C31.4587 34.1587 31.3034 33.6537 30.9768 33.2637L22.9994 23.5134C22.682 23.116 22.2175 22.8632 21.7111 22.8122C21.2047 22.7613 20.6992 22.9165 20.3088 23.2427L1.31053 38.7589C0.912681 39.0759 0.659637 39.5399 0.60864 40.0458C0.557644 40.5516 0.713005 41.0567 1.03958 41.4466L9.04216 51.2032C9.35451 51.5909 9.80741 51.8397 10.3024 51.8956ZM20.7058 23.7274C20.9373 23.5447 21.2236 23.4449 21.5186 23.4442C21.9076 23.4436 22.275 23.6225 22.5142 23.9288L30.4916 33.6602C30.7118 33.9209 30.8166 34.2597 30.7822 34.5991C30.7478 34.9384 30.5769 35.2493 30.3089 35.4605L11.3232 50.9766C11.0594 51.1901 10.7223 51.2917 10.3843 51.2599C10.0454 51.2275 9.73401 51.0595 9.52106 50.7941L1.54368 41.0501C1.33023 40.784 1.22857 40.4454 1.26012 40.1059C1.28778 39.7702 1.44891 39.4596 1.70751 39.2435L20.7058 23.7274Z" fill="#D1D3D4"/>
<path d="M0.945186 40.2941C0.771182 40.2941 0.630124 40.1532 0.630124 39.9794C0.621368 39.8965 0.646567 39.8136 0.699983 39.7496C0.753399 39.6855 0.830484 39.6458 0.91368 39.6395L16.7487 38.2673L21.2478 23.0407C21.2697 22.9596 21.3237 22.8909 21.3975 22.8505C21.4712 22.8101 21.5582 22.8015 21.6385 22.8267C21.803 22.8781 21.8956 23.0519 21.8464 23.2169L17.2969 38.6512C17.2631 38.776 17.1549 38.8665 17.026 38.8778L0.976692 40.2941H0.945186Z" fill="#D1D3D4"/>
<path d="M17.6437 36.6183C17.4697 36.6183 17.3286 36.4774 17.3286 36.3036C17.3286 36.1297 17.4697 35.9888 17.6437 35.9888L31.0401 34.4593C31.2112 34.4443 31.3638 34.5662 31.3867 34.7362C31.3973 34.8198 31.374 34.9042 31.3219 34.9704C31.2698 35.0367 31.1933 35.0793 31.1094 35.0887L17.7004 36.6183H17.6437Z" fill="#D1D3D4"/>
<path d="M10.4789 51.895C10.4477 51.9009 10.4156 51.9009 10.3844 51.895C10.304 51.8705 10.2371 51.8144 10.199 51.7396C10.161 51.6648 10.1551 51.5777 10.1827 51.4984L14.3478 38.689C14.3827 38.5765 14.475 38.4912 14.59 38.4652C14.7049 38.4392 14.825 38.4764 14.905 38.5628C14.9851 38.6492 15.0129 38.7717 14.978 38.8841L10.8128 51.6936C10.7597 51.8282 10.6229 51.9107 10.4789 51.895Z" fill="#D1D3D4"/>
<path d="M171.756 85.0836C172.211 84.0351 173.429 83.5537 174.478 84.0079L191.138 91.2234C192.188 91.6781 192.67 92.8983 192.214 93.9479L188.81 101.792C188.355 102.84 187.137 103.322 186.088 102.867L169.428 95.6519C168.378 95.1971 167.896 93.977 168.351 92.9274L171.756 85.0836Z" fill="white"/>
<path fill-rule="evenodd" clip-rule="evenodd" d="M186.7 103.461C186.899 103.546 187.113 103.591 187.33 103.593C187.534 103.586 187.735 103.541 187.922 103.461C188.316 103.305 188.631 102.999 188.798 102.611L192.831 93.3389C192.995 92.9483 192.995 92.5083 192.831 92.1177C192.676 91.7229 192.37 91.4058 191.98 91.2365L173.877 83.3997C173.066 83.0525 172.126 83.4234 171.772 84.2306L167.746 93.5151C167.585 93.9085 167.585 94.3492 167.746 94.7425C167.902 95.1374 168.211 95.4527 168.603 95.6175L186.7 103.461ZM172.396 84.4824C172.549 84.128 172.898 83.898 173.284 83.897C173.408 83.8991 173.531 83.927 173.644 83.9788L191.734 91.8219C191.973 91.9215 192.16 92.1151 192.251 92.3569C192.349 92.5927 192.349 92.8576 192.251 93.0934L188.218 102.384C188.119 102.621 187.928 102.807 187.689 102.9C187.451 102.998 187.184 102.998 186.945 102.9L168.842 95.0573C168.357 94.8469 168.132 94.2851 168.338 93.7984L172.396 84.4824Z" fill="#D1D3D4"/>
<path d="M179.793 94.894C179.686 94.8963 179.585 94.8411 179.529 94.7492L172.597 83.8093C172.505 83.6615 172.55 83.4671 172.698 83.3749C172.846 83.2828 173.041 83.3279 173.133 83.4756L179.926 94.2331L192.434 91.8348C192.516 91.8163 192.602 91.8321 192.672 91.8784C192.742 91.9247 192.79 91.9977 192.805 92.0803C192.836 92.252 192.724 92.4169 192.553 92.4517L179.838 94.894H179.793Z" fill="#D1D3D4"/>
<path d="M187.695 103.536C187.59 103.536 187.491 103.484 187.431 103.398L181.394 94.4279C181.299 94.2835 181.338 94.0896 181.482 93.9936C181.551 93.9463 181.636 93.929 181.718 93.9456C181.8 93.9622 181.872 94.0113 181.917 94.0817L187.954 103.077C188.049 103.223 188.01 103.419 187.865 103.517C187.811 103.538 187.753 103.545 187.695 103.536Z" fill="#D1D3D4"/>
<path d="M168.086 95.0577C167.93 95.0597 167.796 94.9473 167.771 94.7934C167.758 94.7107 167.779 94.6264 167.829 94.5591C167.878 94.4918 167.953 94.447 168.035 94.4346L178.747 92.6847C178.86 92.6667 178.974 92.71 179.046 92.7984C179.117 92.8868 179.137 93.0068 179.096 93.1132C179.055 93.2195 178.961 93.2961 178.848 93.3141L168.136 95.064L168.086 95.0577Z" fill="#D1D3D4"/>
<path d="M50.5964 11.2352C50.8594 10.4428 51.7147 10.0134 52.5072 10.2759L65.1092 14.4489C65.9024 14.7116 66.3323 15.5678 66.0691 16.3609L64.0993 22.2971C63.8363 23.0894 62.981 23.5189 62.1885 23.2564L49.5865 19.0834C48.7933 18.8207 48.3634 17.9645 48.6266 17.1714L50.5964 11.2352Z" fill="white"/>
<path fill-rule="evenodd" clip-rule="evenodd" d="M62.6218 23.727C62.7479 23.7684 62.8797 23.7897 63.0125 23.79C63.5559 23.7905 64.0385 23.4429 64.2097 22.9276L66.5348 15.9029C66.7512 15.2461 66.3967 14.5379 65.7409 14.3167L52.0483 9.78456C51.3909 9.57308 50.6855 9.92958 50.4667 10.584L48.1352 17.6087C48.031 17.9243 48.0559 18.2682 48.2045 18.5655C48.3534 18.8626 48.6139 19.0889 48.9292 19.1949L62.6218 23.727ZM63.296 23.1291C63.1426 23.192 62.9705 23.192 62.8171 23.1291L49.1434 18.6284C48.9857 18.5776 48.8544 18.4668 48.7779 18.32C48.7181 18.1661 48.7181 17.9955 48.7779 17.8416L51.1094 10.8169C51.1617 10.6617 51.2724 10.533 51.4182 10.4581C51.5665 10.3828 51.7387 10.3692 51.8971 10.4203L65.5897 14.9524C65.7461 15.0061 65.8751 15.1192 65.9488 15.2671C66.0119 15.4204 66.0119 15.5923 65.9488 15.7455L63.6111 22.764C63.5587 22.9226 63.4454 23.0539 63.296 23.1291Z" fill="#D1D3D4"/>
<path d="M57.0578 17.9484C56.9589 17.9474 56.8659 17.901 56.8058 17.8225L51.0402 10.3068C50.9467 10.1692 50.9766 9.98268 51.1084 9.88106C51.2401 9.77943 51.4283 9.79772 51.538 9.92283L57.1524 17.2686L66.0497 14.7508C66.1308 14.7276 66.2178 14.7379 66.2912 14.7793C66.3646 14.8207 66.4183 14.8898 66.4404 14.9711C66.4846 15.1378 66.3863 15.3091 66.2199 15.355L57.1209 17.961L57.0578 17.9484Z" fill="#D1D3D4"/>
<path d="M63.3715 23.727C63.2752 23.7285 63.184 23.6841 63.1258 23.6074L58.1478 17.4514C58.0382 17.3158 58.0593 17.1171 58.1951 17.0076C58.3308 16.8981 58.5297 16.9192 58.6393 17.0548L63.6173 23.2172C63.7245 23.3529 63.702 23.5497 63.5669 23.6578C63.5112 23.7018 63.4425 23.7261 63.3715 23.727Z" fill="#D1D3D4"/>
<path d="M48.5197 18.8173C48.4071 18.8308 48.2959 18.7833 48.2279 18.6927C48.1599 18.602 48.1455 18.4821 48.1901 18.3779C48.2347 18.2738 48.3315 18.2014 48.4441 18.1879L56.119 16.224C56.2 16.2029 56.2861 16.215 56.3583 16.2576C56.4304 16.3001 56.4826 16.3695 56.5034 16.4506C56.5243 16.5307 56.512 16.6159 56.4693 16.687C56.4267 16.758 56.3572 16.8089 56.2765 16.8282L48.6016 18.7984L48.5197 18.8173Z" fill="#D1D3D4"/>
</svg>
